<?xml version="1.0" encoding="UTF-8" standalone="no"?>
<!DOCTYPE svg PUBLIC "-//W3C//DTD SVG 1.1//EN" "http://www.w3.org/Graphics/SVG/1.1/DTD/svg11.dtd">

<!-- Created with Vectornator (http://vectornator.io/) -->
<svg height="100%" stroke-miterlimit="10" style="fill-rule:nonzero;clip-rule:evenodd;stroke-linecap:round;stroke-linejoin:round;" version="1.1" viewBox="0 0 64 64" width="100%" xml:space="preserve" xmlns="http://www.w3.org/2000/svg" xmlns:vectornator="http://vectornator.io" xmlns:xlink="http://www.w3.org/1999/xlink">
<metadata>
<vectornator:setting key="IsTimeLapseWatermarkDisabled" value="false"/>
<vectornator:setting key="UndoHistoryDisabled" value="true"/>
<vectornator:setting key="VNDimensionsVisible" value="true"/>
<vectornator:setting key="VNSnapToGuides" value="true"/>
<vectornator:setting key="WDCMYKEnabledKey" value="false"/>
<vectornator:setting key="WDDisplayWhiteBackground" value="false"/>
<vectornator:setting key="WDDynamicGuides" value="false"/>
<vectornator:setting key="WDGuidesVisible" value="true"/>
<vectornator:setting key="WDIsolateActiveLayer" value="false"/>
<vectornator:setting key="WDOutlineMode" value="false"/>
<vectornator:setting key="WDRulersVisible" value="true"/>
<vectornator:setting key="WDSnapToEdges" value="false"/>
<vectornator:setting key="WDSnapToGrid" value="false"/>
<vectornator:setting key="WDSnapToPoints" value="false"/>
<vectornator:setting key="WDUnits" value="Points"/>
</metadata>
<defs/>
<g id="Layer-1" vectornator:layerName="Layer 1">
<path d="M13.2778 3.59057L3.69923 3.59057L3.88168 60.3319L13.2778 60.2863" fill="#000000" fill-opacity="0.00225225" fill-rule="evenodd" opacity="1" stroke="#000000" stroke-linecap="round" stroke-linejoin="round" stroke-width="4.60862"/>
<path d="M50.6192 60.1611L60.1975 60.2277L60.2396 48.9608L60.4097 3.48646L51.0135 3.46673" fill="#000000" fill-opacity="0.00225225" fill-rule="evenodd" opacity="1" stroke="#000000" stroke-linecap="round" stroke-linejoin="round" stroke-width="4.60862"/>
<g opacity="1">
<path d="M8.59228 32.6018L16.2916 32.682L19.3602 14.9179L24.4695 46.7435L31.3338 15.269L37.4181 46.9775L43.1514 15.737L47.9444 32.8301L55.1539 32.8795" fill="#000000" fill-opacity="0.00225225" fill-rule="evenodd" stroke="none"/>
<path d="M19.3438 13.625C19.0191 13.6258 18.6915 13.7824 18.4062 13.9375C17.7938 14.2704 17.7616 15.1706 17.6562 15.7812C17.5924 16.1513 17.5326 16.5049 17.4688 16.875C17.4049 17.2451 17.3451 17.6299 17.2812 18C16.5269 22.3705 15.6652 26.7389 15 31.125C12.871 31.1685 10.7219 31.0845 8.59375 31.0625C7.74365 31.0536 7.07136 31.7437 7.0625 32.5938C7.05364 33.4438 7.7124 34.1474 8.5625 34.1562C9.32441 34.1643 10.1131 34.1482 10.875 34.1562C11.3963 34.1617 11.9162 34.182 12.4375 34.1875C13.795 34.2018 16.5417 34.5725 17.5 33.3125C17.984 32.6761 18.0565 31.4766 18.1875 30.7188C18.2515 30.3487 18.311 29.9951 18.375 29.625C18.439 29.2549 18.4985 28.8701 18.5625 28.5C18.7544 27.3898 18.9643 26.2977 19.1562 25.1875C19.2083 24.8866 19.2605 24.5821 19.3125 24.2812C19.8393 27.5709 20.3482 30.8666 20.875 34.1562C21.0625 35.327 21.25 36.4855 21.4375 37.6562C21.5702 38.4851 21.7111 39.3274 21.8438 40.1562C21.935 40.7261 22.0338 41.3052 22.125 41.875C22.2162 42.4448 22.2839 42.9926 22.375 43.5625C22.4661 44.1324 22.5653 44.7114 22.6562 45.2812C22.7889 46.1122 22.8321 47.4719 23.7812 47.8125C24.1062 47.9291 24.4705 48.0162 24.8125 47.9688C26.1884 47.7778 26.3736 45.3178 26.5938 44.3125C27.32 40.9961 28.055 37.6602 28.7812 34.3438C29.5966 30.6206 30.4034 26.9107 31.2188 23.1875C31.4095 24.186 31.6218 25.189 31.8125 26.1875C32.9388 32.0841 34.0599 37.9786 35.1875 43.875C35.2961 44.4428 35.3914 44.9947 35.5 45.5625C35.647 46.3311 35.7303 47.4876 36.5312 47.875C36.8237 48.0164 37.144 48.1311 37.4688 48.125C37.7813 48.1191 38.0675 47.99 38.3438 47.8438C38.582 47.7176 38.7789 47.4247 38.9062 47.1875C39.2006 46.6391 39.2318 45.9202 39.3438 45.3125C39.4636 44.6617 39.5989 44.0258 39.7188 43.375C39.8386 42.7242 39.9427 42.057 40.0625 41.4062C40.1824 40.7555 40.3176 40.1195 40.4375 39.4688C41.3963 34.2626 42.3559 29.0503 43.3125 23.8438C43.3696 23.533 43.4116 23.217 43.4688 22.9062C43.7407 23.8769 44.0093 24.8418 44.2812 25.8125C44.6336 27.0701 44.9914 28.3362 45.3438 29.5938C45.5152 30.2058 45.7035 30.8254 45.875 31.4375C46.0926 32.214 46.2371 33.0189 46.8125 33.625C47.9123 34.7834 50.0856 34.4586 51.5312 34.4688C52.132 34.473 52.743 34.4958 53.3438 34.5C53.9445 34.5042 54.5555 34.4958 55.1562 34.5C56.0538 34.5061 56.7751 33.7726 56.7812 32.875C56.7874 31.9774 56.0538 31.2561 55.1562 31.25C53.3539 31.238 51.5524 31.2307 49.75 31.2188C49.5525 31.2174 49.3539 31.2199 49.1562 31.2188C48.7571 29.9566 48.4495 28.6427 48.0938 27.375C47.3735 24.8083 46.6578 22.2542 45.9375 19.6875C45.6233 18.5678 45.3142 17.4322 45 16.3125C44.9202 16.028 44.801 15.4022 44.625 15.1562C44.4964 14.9766 44.3832 14.7587 44.1875 14.6562C43.8367 14.4725 43.4271 14.3343 43.0312 14.3438C42.7052 14.3515 42.4047 14.5511 42.125 14.7188C41.9481 14.8248 41.7867 15.0883 41.6875 15.2812C41.3655 15.9075 41.3133 16.7198 41.1875 17.4062C41.0682 18.0571 40.9631 18.6929 40.8438 19.3438C40.6051 20.6455 40.3636 21.9483 40.125 23.25C39.8864 24.5517 39.6449 25.8545 39.4062 27.1562C38.8097 30.4106 38.2202 33.6829 37.625 36.9375C37.5431 37.3855 37.4569 37.8333 37.375 38.2812C37.2383 37.5713 37.1056 36.8662 36.9688 36.1562C35.8958 30.5887 34.8232 25.005 33.75 19.4375C33.642 18.8774 33.5455 18.3101 33.4375 17.75C33.2365 16.7073 33.0754 14.2811 31.6875 14.0312C31.3643 13.9731 31.0337 14.0319 30.7188 14.125C29.7125 14.4225 29.592 15.7698 29.4062 16.625C29.2838 17.1886 29.1849 17.7489 29.0625 18.3125C28.9401 18.8761 28.8099 19.4364 28.6875 20C28.5651 20.5636 28.4349 21.1239 28.3125 21.6875C28.1344 22.5073 27.9593 23.3364 27.7812 24.1562C27.5297 25.3142 27.2828 26.467 27.0312 27.625C26.2559 31.1947 25.4628 34.7741 24.6875 38.3438C24.5585 37.5421 24.4415 36.7391 24.3125 35.9375C23.3688 30.0738 22.4124 24.2075 21.4688 18.3438C21.3745 17.7583 21.2817 17.1792 21.1875 16.5938C21.0758 15.8994 20.9839 14.2977 20.3125 13.9375C20.0172 13.7791 19.6789 13.6242 19.3438 13.625Z" fill="#000000" stroke="none"/>
</g>
</g>
</svg>
